<svg height="512" viewBox="0 0 512 512" width="512" xmlns="http://www.w3.org/2000/svg"><g id="filled_outline" data-name="filled outline"><circle cx="255.993" cy="255.997" fill="#b6eaef" r="232"/><circle cx="255.993" cy="151.997" fill="#f5b02e" r="72"/><path d="m119.992 208-85.579 116.955c29.364 94.456 117.462 163.045 221.58 163.045a231.994 231.994 0 0 0 62.578-8.61z" fill="#3e8cc7"/><path d="m391.993 208-198.579 271.387a232 232 0 0 0 62.579 8.613c104.117 0 192.215-68.586 221.579-163.042z" fill="#3e8cc7"/><g fill="#f8f8f8"><path d="m367.993 279.997 24 24 24-24 41.787 17.909-65.787-89.909-65.787 89.909z"/><path d="m95.992 279.997 24 24 24-24 41.787 17.909-65.787-89.909-65.786 89.909z"/><path d="m431.993 176a24 24 0 0 0 -24-24h-8a32 32 0 1 0 -64 0h-8a24 24 0 0 0 -24 24z"/><path d="m223.993 144a24 24 0 0 0 -24-24h-8a32 32 0 1 0 -64 0h-8a24 24 0 0 0 -24 24z"/></g><path d="m431.409 407.733-175.416-239.733-175.417 239.733a231.818 231.818 0 0 0 350.833 0z" fill="#4298d1"/><path d="m320.993 400h24l-32 40h24l-32 40-1.49 3.1a231.345 231.345 0 0 0 110.361-57.2l-20.871-25.9h24l-39.893-66.485-8.913-12.181z" fill="#83bd93"/><path d="m199.993 440-32-40h24l-48-80-48 80h24l-21.236 26.542a231.523 231.523 0 0 0 96.804 53.458h12.432l-32-40z" fill="#83bd93"/><path d="m231.993 247.997 24 24 24-24 50.315 21.563-74.315-101.563-74.315 101.563z" fill="#f8f8f8"/><path d="m279.993 400h24l-48-80-48 80h24l-32 40h24l-31.34 39.174a231.69 231.69 0 0 0 126.679 0l-31.339-39.174h24z" fill="#8bc89c"/><path d="m425.7 86.3a240 240 0 1 0 -339.413 339.405 240 240 0 1 0 339.413-339.405zm-328.1 11.308a224 224 0 0 1 382.392 158.392 225.718 225.718 0 0 1 -5.781 50.868l-75.763-103.591a8 8 0 0 0 -12.915 0l-46.633 63.758-36.678-49.778a80.032 80.032 0 0 0 27.033-33.257h102.737a8 8 0 0 0 8-8 32.036 32.036 0 0 0 -32-32h-.8a39.988 39.988 0 0 0 -73.76-12.1 80.015 80.015 0 0 0 -77.44-59.9 80.537 80.537 0 0 0 -61.123 28.443 39.992 39.992 0 0 0 -74.069 11.557h-.8a32.036 32.036 0 0 0 -32 32 8 8 0 0 0 8 8h80a79.937 79.937 0 0 0 33.763 65.268l-36.673 49.77-46.633-63.761a8 8 0 0 0 -12.914 0l-75.771 103.586a225.731 225.731 0 0 1 -5.78-50.863 222.535 222.535 0 0 1 65.608-158.392zm288.141 307.384 16.514 20.68a222.154 222.154 0 0 1 -80.077 44.43l20.064-25.108a8 8 0 0 0 -6.25-12.994h-7.355l21.6-27a8 8 0 0 0 -6.247-13h-9.87l33.87-56.451 33.873 56.451h-9.871a8 8 0 0 0 -6.251 12.992zm-66.382 43.008-7.229 9.046-6.616-9.046zm-6.227-52.116a8 8 0 0 0 6.86 12.116h7.355l-15.355 19.193-15.355-19.193h7.355a8 8 0 0 0 6.86-12.116l-48-80a8 8 0 0 0 -13.72 0l-48 80a8 8 0 0 0 6.86 12.116h7.355l-15.355 19.193-15.355-19.193h7.355a8 8 0 0 0 6.86-12.116l-45.258-75.43 32.52-44.133 44.048-18.838 20.173 20.174a8 8 0 0 0 11.314 0l20.173-20.174 44.048 18.838 32.52 44.133zm-185.928.653a8 8 0 0 0 -7.212-4.537h-9.87l33.87-56.451 33.871 56.451h-9.871a8 8 0 0 0 -6.247 13l21.6 27h-7.355a8 8 0 0 0 -6.247 13l20.091 25.114a222.164 222.164 0 0 1 -80.134-44.47l16.535-20.644a8 8 0 0 0 .965-8.463zm72.651 60.486-7.218-9.023h13.824zm-7.865-305.023h32a8 8 0 0 0 8-8 32.045 32.045 0 0 0 -26.339-31.488 64.506 64.506 0 0 1 50.341-24.512 63.739 63.739 0 0 1 63.619 57.121 32.052 32.052 0 0 0 -23.619 30.879 8 8 0 0 0 8 8h7.377a63.994 63.994 0 0 1 -18.636 20.376l-30.3-41.121a8 8 0 0 0 -12.881 0l-30.309 41.133a63.946 63.946 0 0 1 -27.253-52.388zm0-24h8a16.01 16.01 0 0 1 13.853 8h-107.703a16.008 16.008 0 0 1 13.852-8h8a8 8 0 0 0 8-8 24 24 0 1 1 48 0 8 8 0 0 0 8 8zm122.15 40a16.008 16.008 0 0 1 13.852-8h8a8 8 0 0 0 8-8 24 24 0 1 1 48 0 8 8 0 0 0 8 8h8a16.01 16.01 0 0 1 13.853 8zm-58.148 13.486 51.157 69.427-24.011-10.268a8 8 0 0 0 -8.8 1.7l-18.343 18.344-18.343-18.344a8 8 0 0 0 -8.8-1.7l-24.012 10.268zm178.036 97.549-14.883-6.387a8 8 0 0 0 -8.812 1.695l-18.343 18.344-18.343-18.344a8 8 0 0 0 -8.816-1.693l-14.9 6.4 42.056-57.5zm-271.983.018-14.9-6.4a8 8 0 0 0 -8.816 1.693l-18.339 18.341-18.343-18.344a8 8 0 0 0 -8.812-1.695l-14.883 6.387 42.038-57.483zm-118.8 47.42 16.155-22.064 34.77-14.921 20.168 20.169a8 8 0 0 0 11.314 0l20.166-20.166 8.143 3.5-64.829 102.893a8 8 0 0 0 6.86 12.116h7.34l-5.389 6.726c-.114-.113-.23-.221-.343-.334a223.044 223.044 0 0 1 -54.352-87.919zm163.562 148.139 21.88-29.886a8 8 0 0 0 -6.455-12.726h-5.595l21.6-27a8 8 0 0 0 -6.247-13h-9.87l33.87-56.451 33.873 56.451h-9.871a8 8 0 0 0 -6.247 13l21.6 27h-5.595a8 8 0 0 0 -6.457 12.723l21.864 29.893a227.19 227.19 0 0 1 -98.352 0zm207.577-60.22c-.122.122-.249.24-.372.363l-5.394-6.755h7.374a8 8 0 0 0 6.86-12.116l-64.825-102.894 8.141-3.5 20.165 20.166a8 8 0 0 0 11.314 0l20.168-20.169 34.77 14.921 16.15 22.069a223.05 223.05 0 0 1 -54.351 87.915z"/></g></svg>